<svg version="1.0" xmlns="http://www.w3.org/2000/svg" width="1600" height="1000" viewBox="0 0 1200 750"><path d="M0 325v325h1200V0H0v325z" fill="#009ba1"/><path d="M264.6 180c-69.4 8-142.9 54.1-244.1 153.2L0 353.2V650h1200V380.8l-3.2 2c-21.8 13.3-91.5 51.4-121.8 66.6-106.7 53.7-186.8 76.1-255.9 71.6-74-4.9-129.9-33.7-215.6-111.1-17.3-15.6-38.7-36.3-90-86.9-34.9-34.4-54.6-53-73.5-69.1-48.8-41.7-89.3-64.5-127.5-71.9-12.6-2.4-35.8-3.4-47.9-2z" fill="#53D2DB"/><path d="M898.6 366.6c-32.8 5.9-72.2 28.6-119.6 68.8-5.2 4.4-23.4 20.2-40.5 35.1-63.4 55.4-95.1 79.9-133.5 102.7-98.1 58.5-220.8 76.6-429 63.3-37.9-2.5-156.2-12.7-172.2-15L0 621v129h1200V554l-32.2-32.6c-57.4-58-90.7-87.1-129.3-112.9-35.3-23.6-65.3-36.9-94.4-41.9-11.7-2-34.5-2-45.5 0z" fill="#FFE3B3"/></svg>